<?xml version="1.0" encoding="UTF-8"?>
<svg xmlns="http://www.w3.org/2000/svg" width="51" height="59" viewBox="0 0 51 59" fill="none">
  <path fill-rule="evenodd" clip-rule="evenodd" d="M34.8329 5.39817L11.6101 18.8311L27.7785 28.182V46.8869L51 33.4533V14.7497L34.8329 5.39817ZM0 14.7497V44.2503L9.33261 49.6485V38.8515L23.2222 46.8857V41.6143L9.33261 33.5802V28.1814L23.2222 36.2155V30.8174L4.66662 20.0851V17.4485L30.1663 2.6994L25.4997 0L0 14.7497ZM25.4997 53.6018L13.8889 46.885V52.2838L25.4997 59L51 44.2503V38.8515L25.4997 53.6018ZM37.1105 22.7838L25.6106 16.133L30.2766 13.4317L41.6661 20.0216V33.4533L37.1105 36.0881V22.7832V22.7838Z" fill="#050505"></path>
</svg>
